<svg id="Layer_1" xmlns="http://www.w3.org/2000/svg" width="300" height="97.455" viewBox="0 0 300 97.455">
  <path id="패스_1" data-name="패스 1" d="M78.91,34.158h5.422V71.137h17.724v4.485H78.91V34.14Z" transform="translate(39.103 8.972)" fill="#fff"/>
  <path id="패스_2" data-name="패스 2" d="M122.4,55.564c0,11.023-7.691,15.815-14.824,15.815-8,0-14.284-5.908-14.284-15.328,0-9.907,6.592-15.761,14.77-15.761S122.4,46.5,122.4,55.546ZM98.82,55.87c0,6.52,3.692,11.438,8.988,11.438s9.042-4.863,9.042-11.564c0-5.043-2.522-11.384-8.916-11.384S98.82,50.269,98.82,55.87Z" transform="translate(45.71 13.899)" fill="#fff"/>
  <path id="패스_3" data-name="패스 3" d="M139.689,66.335c0,6.9-1.423,11.023-4.251,13.653-2.954,2.648-7.133,3.566-10.9,3.566s-7.511-.865-9.907-2.468l1.351-4.179a16.149,16.149,0,0,0,8.736,2.4c5.548,0,9.6-2.9,9.6-10.465v-3.26h-.126c-1.6,2.774-4.863,4.989-9.474,4.989-7.385,0-12.68-6.268-12.68-14.518,0-10.087,6.592-15.761,13.473-15.761,5.169,0,7.943,2.648,9.294,5.115h.126l.18-4.485H139.9c-.18,2.089-.252,4.557-.252,8.123V66.335Zm-5.422-13.653a7.374,7.374,0,0,0-.306-2.4A7.723,7.723,0,0,0,126.4,44.5c-5.169,0-8.862,4.377-8.862,11.258,0,5.854,3.008,10.7,8.79,10.7a7.815,7.815,0,0,0,7.511-5.53,9.437,9.437,0,0,0,.432-2.9Z" transform="translate(55.029 13.899)" fill="#fff"/>
  <path id="패스_4" data-name="패스 4" d="M138.471,37.5a3.23,3.23,0,0,1-3.44,3.314,3.184,3.184,0,0,1-3.26-3.314,3.3,3.3,0,0,1,3.386-3.386A3.205,3.205,0,0,1,138.471,37.5Zm-6.034,38.15V45.854h5.422V75.646Z" transform="translate(67.19 8.948)" fill="#fff"/>
  <path id="패스_5" data-name="패스 5" d="M140.3,65.219a15.19,15.19,0,0,0,7.2,2.089c3.873,0,5.728-1.909,5.728-4.431s-1.549-3.945-5.476-5.422c-5.422-1.963-7.943-4.863-7.943-8.43,0-4.809,3.945-8.736,10.285-8.736a13.859,13.859,0,0,1,7.259,1.837l-1.3,3.945a11.513,11.513,0,0,0-6.088-1.783c-3.206,0-4.917,1.837-4.917,4.053,0,2.468,1.729,3.566,5.6,5.115,5.115,1.909,7.817,4.485,7.817,8.916,0,5.3-4.125,8.988-11.077,8.988a17.118,17.118,0,0,1-8.376-2.089l1.3-4.071Z" transform="translate(69.355 13.899)" fill="#fff"/>
  <path id="패스_6" data-name="패스 6" d="M161.689,36.678v7.133h7.745v4.125h-7.745V64c0,3.692,1.045,5.782,4.071,5.782a9.822,9.822,0,0,0,3.134-.378l.252,4.125a14.468,14.468,0,0,1-4.791.738A7.786,7.786,0,0,1,158.5,72c-1.477-1.657-2.089-4.3-2.089-7.817V47.936H151.8V43.811h4.611V38.263l5.3-1.6Z" transform="translate(75.978 10.991)" fill="#fff"/>
  <path id="패스_7" data-name="패스 7" d="M171.311,37.5a3.23,3.23,0,0,1-3.44,3.314,3.184,3.184,0,0,1-3.26-3.314A3.3,3.3,0,0,1,168,34.11,3.205,3.205,0,0,1,171.311,37.5Zm-6.034,38.15V45.854H170.7V75.646Z" transform="translate(75.302 8.948)" fill="#fff"/>
  <path id="패스_8" data-name="패스 8" d="M195.16,69.642a20.836,20.836,0,0,1-8.556,1.729c-8.988,0-14.824-6.088-14.824-15.2S178.048,40.3,187.775,40.3a16.893,16.893,0,0,1,7.511,1.6l-1.225,4.125a13.131,13.131,0,0,0-6.268-1.423c-6.827,0-10.519,5.115-10.519,11.258,0,6.9,4.431,11.131,10.339,11.131a15.34,15.34,0,0,0,6.646-1.423l.919,4.071Z" transform="translate(81.046 13.907)" fill="#fff"/>
  <path id="패스_9" data-name="패스 9" d="M188.449,65.219a15.19,15.19,0,0,0,7.2,2.089c3.873,0,5.728-1.909,5.728-4.431s-1.549-3.945-5.476-5.422c-5.422-1.963-7.943-4.863-7.943-8.43,0-4.809,3.945-8.736,10.285-8.736a13.859,13.859,0,0,1,7.259,1.837l-1.3,3.945a11.513,11.513,0,0,0-6.088-1.783c-3.206,0-4.917,1.837-4.917,4.053,0,2.468,1.729,3.566,5.6,5.115,5.115,1.909,7.817,4.485,7.817,8.916,0,5.3-4.125,8.988-11.077,8.988a17.118,17.118,0,0,1-8.376-2.089l1.3-4.071Z" transform="translate(93.377 13.899)" fill="#fff"/>
  <path id="패스_10" data-name="패스 10" d="M0,16H53.478v6.783H13.6V47.025H52.433v6.835H13.6V80.8H54.577v6.783H6.773a7.127,7.127,0,0,1-2.612-.467,7.569,7.569,0,0,1-2.252-1.4A8.366,8.366,0,0,1,.522,83.655,5.764,5.764,0,0,1,0,81.147V16Z" transform="translate(0 -2.63)" fill="#fff"/>
  <path id="패스_11" data-name="패스 11" d="M78.227,25.919,61.8,47.228a25.887,25.887,0,1,0-4.143-3.44l16.1-17.868h4.467Z" transform="translate(23.491 0)" fill="#fff"/>
  <path id="패스_12" data-name="패스 12" d="M70.9,30.372,47.5,55.466V23.429a3.922,3.922,0,0,0-1.171-2.8A11.252,11.252,0,0,0,43.4,18.5a20.613,20.613,0,0,0-4.035-1.479c-1.477-.383-2.864-.7-4.2-.9V84.98a7.574,7.574,0,0,1-1.4,2.7c1.333-.035,2.738-.1,4.233-.209a36.329,36.329,0,0,0,4.179-.522,20.457,20.457,0,0,0,3.4-.922,3.485,3.485,0,0,0,1.945-1.41V67.3L57.644,55.066,89.255,99.771h16.391L64.867,46.486,75.062,33.713a25.818,25.818,0,0,1-4.143-3.306Z" transform="translate(14.963 -2.533)" fill="#fff"/>
</svg>
