<svg xmlns="http://www.w3.org/2000/svg" width="32" height="32" viewBox="0 0 32 32">
  <path id="globe-solid" d="M22,16a39.082,39.082,0,0,1-.206,4H10.206A37.379,37.379,0,0,1,10,16a39.081,39.081,0,0,1,.206-4H21.794A37.379,37.379,0,0,1,22,16Zm1.8-4h7.694a16.056,16.056,0,0,1,0,8H23.8a39.487,39.487,0,0,0,.2-4A39.487,39.487,0,0,0,23.8,12Zm7.038-2H23.544A21.984,21.984,0,0,0,20.088.525,16.031,16.031,0,0,1,30.831,10Zm-9.319,0H10.481a25.19,25.19,0,0,1,1.688-5.919A10.209,10.209,0,0,1,14.262.862,2.582,2.582,0,0,1,16,0a2.582,2.582,0,0,1,1.737.862,10.209,10.209,0,0,1,2.094,3.219A24.724,24.724,0,0,1,21.519,10ZM8.456,10H1.163A16.041,16.041,0,0,1,11.913.525,21.984,21.984,0,0,0,8.456,10ZM.506,12H8.2a40.1,40.1,0,0,0,0,8H.506a16.056,16.056,0,0,1,0-8ZM12.169,27.913A24.753,24.753,0,0,1,10.481,22H21.519a25.046,25.046,0,0,1-1.687,5.913,10.209,10.209,0,0,1-2.094,3.219A2.568,2.568,0,0,1,16,32a2.582,2.582,0,0,1-1.738-.862,10.209,10.209,0,0,1-2.094-3.219ZM8.456,22a21.984,21.984,0,0,0,3.456,9.475A16.041,16.041,0,0,1,1.163,22Zm22.381,0a16.044,16.044,0,0,1-10.744,9.475A22.065,22.065,0,0,0,23.55,22h7.287Z" fill="#999"/>
</svg>
