<svg id="Layer_1" xmlns="http://www.w3.org/2000/svg" xmlns:xlink="http://www.w3.org/1999/xlink" width="123.135" height="40" viewBox="0 0 123.135 40">
  <defs>
    <radialGradient id="radial-gradient" cx="0.922" cy="0.04" r="1.526" gradientTransform="translate(0)" gradientUnits="objectBoundingBox">
      <stop offset="0.05" stop-color="#fff"/>
      <stop offset="0.29" stop-color="#00a0e9"/>
      <stop offset="0.82" stop-color="#003b90"/>
      <stop offset="1" stop-color="#003b90"/>
    </radialGradient>
    <radialGradient id="radial-gradient-2" cx="0.226" cy="-0.228" r="0.726" gradientTransform="translate(-0.102) scale(1.204 1)" xlink:href="#radial-gradient"/>
  </defs>
  <path id="패스_1" data-name="패스 1" d="M78.91,34.147h2.16V48.882h7.062v1.787H78.91V34.14Z" transform="translate(-30.353 -15.793)" fill="#898989"/>
  <path id="패스_2" data-name="패스 2" d="M104.888,46.376c0,4.392-3.065,6.3-5.907,6.3-3.187,0-5.691-2.354-5.691-6.108,0-3.947,2.627-6.28,5.885-6.28s5.713,2.476,5.713,6.079Zm-9.395.122c0,2.6,1.471,4.557,3.581,4.557s3.6-1.938,3.6-4.608c0-2.01-1-4.536-3.553-4.536S95.493,44.266,95.493,46.5Z" transform="translate(-36.059 -17.529)" fill="#898989"/>
  <path id="패스_3" data-name="패스 3" d="M123.057,50.668c0,2.749-.567,4.392-1.694,5.44a6.514,6.514,0,0,1-4.342,1.421,7.446,7.446,0,0,1-3.947-.983l.538-1.665a6.435,6.435,0,0,0,3.481.955c2.211,0,3.825-1.156,3.825-4.17v-1.3h-.05a4.206,4.206,0,0,1-3.775,1.988c-2.943,0-5.053-2.5-5.053-5.785,0-4.019,2.627-6.28,5.368-6.28a3.96,3.96,0,0,1,3.7,2.038h.05l.072-1.787h1.909c-.072.833-.1,1.816-.1,3.237v6.89Zm-2.16-5.44a2.938,2.938,0,0,0-.122-.955,3.077,3.077,0,0,0-3.014-2.3c-2.06,0-3.531,1.744-3.531,4.486,0,2.333,1.2,4.263,3.5,4.263a3.114,3.114,0,0,0,2.993-2.2,3.76,3.76,0,0,0,.172-1.156V45.228Z" transform="translate(-43.262 -17.529)" fill="#898989"/>
  <path id="패스_4" data-name="패스 4" d="M134.44,35.459a1.287,1.287,0,0,1-1.371,1.321,1.269,1.269,0,0,1-1.3-1.321,1.317,1.317,0,0,1,1.349-1.349A1.277,1.277,0,0,1,134.44,35.459Zm-2.4,15.2V38.789h2.16V50.66Z" transform="translate(-50.052 -15.785)" fill="#898989"/>
  <path id="패스_5" data-name="패스 5" d="M139.53,50.223a6.053,6.053,0,0,0,2.871.833c1.543,0,2.282-.761,2.282-1.766s-.617-1.572-2.182-2.16c-2.16-.782-3.165-1.938-3.165-3.359,0-1.916,1.572-3.481,4.1-3.481a5.522,5.522,0,0,1,2.892.732l-.517,1.572a4.587,4.587,0,0,0-2.426-.711c-1.278,0-1.959.732-1.959,1.615,0,.983.689,1.421,2.232,2.038,2.038.761,3.115,1.787,3.115,3.553,0,2.11-1.644,3.581-4.414,3.581a6.821,6.821,0,0,1-3.337-.833l.517-1.622Z" transform="translate(-53.319 -17.529)" fill="#898989"/>
  <path id="패스_6" data-name="패스 6" d="M155.74,36.667v2.842h3.086v1.644H155.74v6.4c0,1.471.416,2.3,1.622,2.3a3.914,3.914,0,0,0,1.249-.151l.1,1.644a5.765,5.765,0,0,1-1.909.294,3.1,3.1,0,0,1-2.333-.9,4.632,4.632,0,0,1-.833-3.115V41.153H151.8V39.509h1.837V37.3l2.11-.639Z" transform="translate(-58.138 -16.505)" fill="#898989"/>
  <path id="패스_7" data-name="패스 7" d="M167.28,35.459a1.287,1.287,0,0,1-1.371,1.321,1.269,1.269,0,0,1-1.3-1.321,1.317,1.317,0,0,1,1.349-1.349A1.277,1.277,0,0,1,167.28,35.459Zm-2.4,15.2V38.789h2.16V50.66Z" transform="translate(-65.418 -15.785)" fill="#898989"/>
  <path id="패스_8" data-name="패스 8" d="M181.1,51.991a8.3,8.3,0,0,1-3.409.689c-3.581,0-5.907-2.426-5.907-6.057a6.056,6.056,0,0,1,6.373-6.323,6.731,6.731,0,0,1,2.993.639l-.488,1.644a5.232,5.232,0,0,0-2.5-.567c-2.72,0-4.191,2.038-4.191,4.486,0,2.749,1.766,4.435,4.12,4.435a6.112,6.112,0,0,0,2.648-.567l.366,1.622Z" transform="translate(-67.442 -17.532)" fill="#898989"/>
  <path id="패스_9" data-name="패스 9" d="M187.68,50.223a6.053,6.053,0,0,0,2.871.833c1.543,0,2.282-.761,2.282-1.766s-.617-1.572-2.182-2.16c-2.16-.782-3.165-1.938-3.165-3.359,0-1.916,1.572-3.481,4.1-3.481a5.522,5.522,0,0,1,2.892.732l-.517,1.572a4.587,4.587,0,0,0-2.426-.711c-1.278,0-1.959.732-1.959,1.615,0,.983.689,1.421,2.232,2.038,2.038.761,3.115,1.787,3.115,3.553,0,2.11-1.644,3.581-4.414,3.581a6.821,6.821,0,0,1-3.337-.833l.517-1.622Z" transform="translate(-71.786 -17.529)" fill="#898989"/>
  <path id="패스_10" data-name="패스 10" d="M0,16H21.309v2.813H5.419V28.868H20.892V31.7H5.419V42.878H21.747v2.813H2.7A2.741,2.741,0,0,1,1.658,45.5a3,3,0,0,1-.9-.581,3.482,3.482,0,0,1-.553-.854A2.474,2.474,0,0,1,0,43.022V16Z" transform="translate(0 -10.672)" fill="#e88100"/>
  <path id="패스_11" data-name="패스 11" d="M61.422,10.328l-6.545,8.49a10.315,10.315,0,1,0-1.651-1.371l6.416-7.12h1.78Z" transform="translate(-19.823)" fill="url(#radial-gradient)"/>
  <path id="패스_12" data-name="패스 12" d="M48.559,22,39.236,32.347V19.134a1.647,1.647,0,0,0-.467-1.156A4.493,4.493,0,0,0,37.6,17.1a8.038,8.038,0,0,0-1.608-.61,17,17,0,0,0-1.672-.373v28.4a3.162,3.162,0,0,1-.56,1.112c.531-.014,1.091-.043,1.687-.086a14.009,14.009,0,0,0,1.665-.215,7.934,7.934,0,0,0,1.356-.38,1.394,1.394,0,0,0,.775-.581V37.228l4.034-5.045,12.6,18.438H62.4L46.155,28.644l4.062-5.268a10.356,10.356,0,0,1-1.651-1.364Z" transform="translate(-13.578 -10.706)" fill="url(#radial-gradient-2)"/>
</svg>
